v -1.0  1.0  1.0
v -1.0 -1.0  1.0
v  1.0 -1.0  1.0
v  1.0  1.0  1.0
v -1.0  1.0 -1.0
v -1.0 -1.0 -1.0
v  1.0 -1.0 -1.0
v  1.0  1.0 -1.0

vt 0.0 0.0
vt 1.0 0.0
vt 1.0 1.0
vt 0.0 1.0

vn  0.0  0.0  1.0
vn  1.0  0.0  0.0
vn  0.0  0.0 -1.0
vn -1.0  0.0  0.0
vn  0.0  1.0  0.0
vn  0.0 -1.0  0.0

# Front
f 1/4/1 2/1/1 3/2/1
f 1/4/1 3/2/1 4/3/1
# Right
f 4/4/2 3/1/2 7/2/2
f 4/4/2 7/2/2 8/3/2
# Back
f 8/4/3 7/1/3 6/2/3
f 8/4/3 6/2/3 5/3/3
# Left
f 5/4/4 6/1/4 2/2/4
f 5/4/4 2/2/4 1/3/4
# Top
f 5/4/5 1/1/5 4/2/5
f 5/4/5 4/2/5 8/3/5
# Bottom
f 2/4/6 6/1/6 7/2/6
f 2/4/6 7/2/6 3/3/6
